<?xml version="1.0" encoding="UTF-8" standalone="no"?>
<svg
   xmlns:dc="http://purl.org/dc/elements/1.1/"
   xmlns:cc="http://creativecommons.org/ns#"
   xmlns:rdf="http://www.w3.org/1999/02/22-rdf-syntax-ns#"
   xmlns:svg="http://www.w3.org/2000/svg"
   xmlns="http://www.w3.org/2000/svg"
   xmlns:sodipodi="http://sodipodi.sourceforge.net/DTD/sodipodi-0.dtd"
   xmlns:inkscape="http://www.inkscape.org/namespaces/inkscape"
   enable-background="new 0 0 128 128"
   id="Layer_1"
   version="1.1"
   viewBox="0 0 128 128"
   xml:space="preserve"
   inkscape:version="0.91 r13725"
   sodipodi:docname="remove_icon.svg"><metadata
     id="metadata19"><rdf:RDF><cc:Work
         rdf:about=""><dc:format>image/svg+xml</dc:format><dc:type
           rdf:resource="http://purl.org/dc/dcmitype/StillImage" /></cc:Work></rdf:RDF></metadata><defs
     id="defs17" /><sodipodi:namedview
     pagecolor="#ffffff"
     bordercolor="#666666"
     borderopacity="1"
     objecttolerance="10"
     gridtolerance="10"
     guidetolerance="10"
     inkscape:pageopacity="0"
     inkscape:pageshadow="2"
     inkscape:window-width="1301"
     inkscape:window-height="744"
     id="namedview15"
     showgrid="false"
     inkscape:zoom="1.3712392"
     inkscape:cx="290.98305"
     inkscape:cy="-36.610169"
     inkscape:window-x="65"
     inkscape:window-y="24"
     inkscape:window-maximized="1"
     inkscape:current-layer="Layer_1" /><path
     d="m 18.316712,35.016635 5.610223,82.626855 c 0.40073,5.07364 5.075916,9.18079 10.686136,9.18079 l 58.773766,0 c 5.610223,0 10.285423,-4.10715 10.686103,-9.18079 l 5.61029,-82.626855 c -91.366518,0 0,0 -91.366518,0 z"
     id="path3"
     style="fill:#d3573b;fill-opacity:1;stroke:#000000;stroke-width:1.04630697;stroke-miterlimit:4;stroke-dasharray:none;stroke-opacity:1"
     inkscape:connector-curvature="0"
     sodipodi:nodetypes="ccssccc" /><path
     d="m 110.30239,11.620288 -92.604776,0 c -2.680666,0 -4.873936,2.577596 -4.873936,5.727992 l 0,11.455982 c 0,3.150396 2.19327,5.727992 4.873936,5.727992 l 92.604776,0 c 2.68066,0 4.87393,-2.577596 4.87393,-5.727992 l 0,-11.455982 c 0,-3.150396 -2.19327,-5.727992 -4.87393,-5.727992 z"
     id="path5"
     style="fill:#d3573b;fill-opacity:1;stroke:#000000;stroke-width:1.08803368;stroke-miterlimit:4;stroke-dasharray:none;stroke-opacity:1"
     inkscape:connector-curvature="0"
     sodipodi:nodetypes="sssssssss" /><path
     d="m 65,111.98162 c -1.8,0 -3,-0.48345 -3,-1.20861 l 0,-69.736504 c 0,-0.725163 1.2,-1.208605 3,-1.208605 1.8,0 3,0.483442 3,1.208605 l 0,69.736504 c 0,0.6043 -1.2,1.20861 -3,1.20861 z"
     id="path7"
     inkscape:connector-curvature="0"
     style="fill:#2c3e50" /><path
     d="m 83.14431,111.98162 c 0,0 0,0 0,0 -1.857142,0 -3.095238,-0.60431 -3.095238,-1.20861 l 6.809523,-69.736504 c 0,-0.725163 1.547619,-1.208605 3.095239,-1.208605 1.857142,0 3.095238,0.604302 3.095238,1.208605 l -6.809523,69.736504 c 0,0.6043 -1.238096,1.20861 -3.095239,1.20861 z"
     id="path9"
     inkscape:connector-curvature="0"
     style="fill:#2c3e50" /><path
     d="m 44.810223,111.98162 c -1.444444,0 -2.888889,-0.48345 -2.888889,-1.20861 L 34.699113,41.036506 c 0,-0.725163 1.155554,-1.208605 2.888887,-1.208605 1.444444,0 2.888889,0.483442 2.888889,1.208605 l 7.222224,69.736504 c 0,0.6043 -1.155556,1.08775 -2.88889,1.20861 0,0 0,0 0,0 z"
     id="path11"
     inkscape:connector-curvature="0"
     style="fill:#2c3e50" /><path
     d="m 50.585149,10.821382 0,-2.4172099 c 0,-1.3294655 1.097579,-2.4172099 2.439064,-2.4172099 l 24.390638,0 c 1.341485,0 2.439063,1.0877444 2.439063,2.4172099 l 0,2.4172099 4.878128,0 0,-2.4172099 c 0,-3.9883964 -3.292736,-7.2516297 -7.317191,-7.2516297 l -24.390638,0 c -4.024455,0 -7.317191,3.2632333 -7.317191,7.2516297 l 0,2.4172099 4.878127,0 z"
     id="path13"
     style="fill:#d3573b;fill-opacity:1;stroke-width:1;stroke-miterlimit:4;stroke-dasharray:none;stroke:#000000;stroke-opacity:1"
     inkscape:connector-curvature="0" /></svg>